# xmcd CD database file
#
# Track frame offsets:
#	150
#	24668
#	50320
#	72685
#	103754
#	121212
#	152228
#	170352
#	196910
#	219967
#
# Disc length: 3346 seconds
#
# Revision: 0
# Processed by: cddbd v1.4PL0 Copyright (c) Steve Scherf et al.
# Submitted via: CDex 1.51
#
DISCID=890d100a
DTITLE=Lorenzo Petrocca Trio - On A Clear Day
DYEAR=2003
DGENRE=Jazz
TTITLE0=Satin Doll
TTITLE1=Cherokee
TTITLE2=Smile
TTITLE3=In A Mellow Tone
TTITLE4=Oleo
TTITLE5=Angel Eyes
TTITLE6=On A Clear Day
TTITLE7=Moonglow
TTITLE8=Deyection Blues
TTITLE9=Polka Dots And Moonbeams
EXTD=YEAR: 2003
EXTT0=
EXTT1=
EXTT2=
EXTT3=
EXTT4=
EXTT5=
EXTT6=
EXTT7=
EXTT8=
EXTT9=
PLAYORDER=
